<?xml version="1.0" encoding="utf-8"?>
<!-- Generator: Adobe Illustrator 25.4.1, SVG Export Plug-In . SVG Version: 6.00 Build 0)  -->
<svg version="1.1" id="Layer_1" xmlns="http://www.w3.org/2000/svg" xmlns:xlink="http://www.w3.org/1999/xlink" x="0px" y="0px"
	 viewBox="0 0 1858.2 292.2" style="enable-background:new 0 0 1858.2 292.2;" xml:space="preserve">
<style type="text/css">
	.st0{display:none;enable-background:new    ;}
	.st1{font-family:'HelveticaRoundedLTStd-Black';}
	.st2{font-size:56.1856px;}
	.st3{fill:#FF6D00;}
</style>
<text transform="matrix(1 0 0 1 281.5761 242.5279)" class="st0 st1 st2">Organize and play group sports on campus</text>
<g>
	<path d="M296,236.1c10.9,0,21.2,7.1,21.2,21.5c0,14.9-10.3,21.5-21.2,21.5s-21.2-6.6-21.2-21.5C274.8,243.2,285.1,236.1,296,236.1z
		 M296,246.3c-5.5,0-8.1,4.6-8.1,11.3c0,6.7,2.6,11.3,8.1,11.3s8.1-4.6,8.1-11.3C304.1,250.9,301.5,246.3,296,246.3z"/>
	<path d="M322.6,253.3c0-4,2.4-5.8,5.3-5.8s5.3,1.6,5.3,6.1v2.2h0.1c2-5.4,4.3-8.3,7.6-8.3c3.6,0,4.8,2.8,4.8,5.4
		c0,2.9-1.2,4.8-3.1,5.3l-3.1,0.8c-3.1,0.8-5,2-5,5.9v8.1c0,4-2.4,5.8-5.9,5.8s-5.9-1.8-5.9-5.8L322.6,253.3L322.6,253.3z"/>
	<path d="M369.8,272.1h-0.1c-1.2,2.8-4.7,4.1-8.2,4.1c-5.4,0-12.8-3.7-12.8-14.2c0-7.8,4.8-14.4,13-14.4c3.5,0,8,1.6,9,5.4h0.1
		c0-3,1.7-5.4,5.2-5.4c3.6,0,5.3,1.9,5.3,5.7v24.1c0,9.3-6.8,12.7-16.8,12.7c-11.3,0-14.1-4.5-14.1-6.8c0-2.4,1.6-4.4,4.3-4.4
		c2.7,0,4.8,3.7,8.8,3.7c4.8,0,6.3-2.1,6.3-6.4L369.8,272.1L369.8,272.1z M365.4,255.8c-3.6,0-4.9,2.4-4.9,6.3
		c0,3.9,1.3,6.3,4.9,6.3c3.7,0,4.9-2.9,4.9-6.3C370.3,258.7,369,255.8,365.4,255.8z"/>
	<path d="M419.3,269.4c0,2,0.3,3.9,0.3,5.3c0,2.9-2.6,4.2-5.5,4.2c-4.1,0-5.5-2-5.9-4.8c-2.2,3.5-6.4,4.8-10.5,4.8
		c-6.5,0-11.2-2.6-11.2-9.2c0-5,3.5-8.6,15.1-9.4c4.4-0.3,6.2-0.9,6.2-2.9c0-1.9-1.6-2.9-4.8-2.9c-5.1,0-6.3,4.1-10.3,4.1
		c-2.3,0-3.8-1.3-3.8-3.7c0-4.4,6.2-7.2,14.3-7.2c6.2,0,15.8,1.4,15.8,8.8v12.9L419.3,269.4L419.3,269.4z M407.8,264.7
		c-1.6,1.7-5.5,1.4-7.6,2.2c-1,0.4-1.6,1.2-1.6,2.4c0,1.7,1.7,2.9,3.6,2.9c3.4,0,5.6-2,5.6-4.3v-3.4l0,0V264.7z"/>
	<path d="M445.5,261.8c0-3.3-1.4-5-4.4-5c-2.9,0-4.4,2.2-4.4,5.8v10.5c0,4-2.4,5.8-5.9,5.8s-5.9-1.8-5.9-5.8v-19.9
		c0-3.7,1.7-5.6,5.7-5.6c3.5,0,4.9,2,5.3,5.6h0.1c1.9-3.6,5.2-5.6,9.8-5.6c8.1,0,11.5,5,11.5,11.5v14c0,4-2.4,5.8-5.9,5.8
		s-5.9-1.8-5.9-5.8L445.5,261.8L445.5,261.8z"/>
	<path d="M463.3,253.3c0-4,2.4-5.8,5.9-5.8s5.9,1.8,5.9,5.8V273c0,4-2.4,5.8-5.9,5.8s-5.9-1.8-5.9-5.8V253.3z M469.2,234.3
		c3,0,5.5,2.4,5.5,5.6c0,3-2.4,5.5-5.5,5.5s-5.5-2.4-5.5-5.5C463.6,236.8,466,234.3,469.2,234.3z"/>
	<path d="M504.8,269.9c2.6,0,4.4,0.8,4.4,4.1c0,3.3-1.7,4.1-4.4,4.1h-21.1c-2.8,0-4-2.2-4-4.3c0-1.9,0.6-3.1,2.5-5.2l12.4-12.2h-9.3
		c-2.6,0-4.4-0.8-4.4-4.1c0-3,1.4-4.1,5-4.1h18.6c2.9,0,4.3,2.1,4.3,5c0,1.9-0.4,2.8-2,4.4l-12.2,12.2h10.3L504.8,269.9L504.8,269.9
		z"/>
	<path d="M529.8,278.9c-9.3,0-16.8-4.9-16.8-15.7c0-10.8,7.3-15.6,16.8-15.6c13.1,0,17.2,9,17.2,13.5c0,3.6-1.6,4.8-5.4,4.8h-16.7
		c0.3,3.8,2.4,6.2,6.3,6.2c4.3,0,6.8-3.7,10.4-3.7c2,0,3.7,2,3.7,3.9C545.3,275.5,541.2,278.9,529.8,278.9z M535.9,260
		c0-4.1-2.5-5.6-5.5-5.6c-2.6,0-5.4,1.4-5.5,5.6H535.9z"/>
	<path d="M603.1,269.4c0,2,0.3,3.9,0.3,5.3c0,2.9-2.6,4.2-5.5,4.2c-4.1,0-5.5-2-5.9-4.8c-2.2,3.5-6.4,4.8-10.5,4.8
		c-6.5,0-11.2-2.6-11.2-9.2c0-5,3.5-8.6,15.1-9.4c4.4-0.3,6.2-0.9,6.2-2.9c0-1.9-1.6-2.9-4.8-2.9c-5.1,0-6.3,4.1-10.3,4.1
		c-2.3,0-3.8-1.3-3.8-3.7c0-4.4,6.2-7.2,14.3-7.2c6.2,0,15.8,1.4,15.8,8.8L603.1,269.4L603.1,269.4z M591.6,264.7
		c-1.6,1.7-5.5,1.4-7.6,2.2c-1,0.4-1.6,1.2-1.6,2.4c0,1.7,1.7,2.9,3.6,2.9c3.4,0,5.6-2,5.6-4.3v-3.4l0,0V264.7z"/>
	<path d="M629.3,261.8c0-3.3-1.4-5-4.4-5s-4.4,2.2-4.4,5.8v10.5c0,4-2.4,5.8-5.9,5.8s-5.9-1.8-5.9-5.8v-19.9c0-3.7,1.7-5.6,5.7-5.6
		c3.5,0,4.9,2,5.3,5.6h0.1c1.9-3.6,5.2-5.6,9.8-5.6c8.1,0,11.5,5,11.5,11.5v14c0,4-2.4,5.8-5.9,5.8s-5.9-1.8-5.9-5.8L629.3,261.8
		L629.3,261.8z"/>
	<path d="M667.6,242.1c0-4.1,2-5.9,5.7-5.9s5.7,1.8,5.7,5.9v31c0,3.8-1.7,5.7-5.3,5.7c-3.4,0-5.2-2.3-5.2-5.4h-0.1
		c-1,3.8-5.6,5.4-8.9,5.4c-8.2,0-13.3-6.1-13.3-15.7c0-5.8,3.1-15.5,13-15.5c3.9,0,6.6,1.8,8.2,4.6h0.1v-10h0.1V242.1z M663.3,256.8
		c-4.1,0-5.3,3.4-5.3,6.7c0,3.1,1.1,6.8,5.1,6.8c3.4,0,4.8-2.8,4.8-7.1C667.8,259.1,665.8,256.8,663.3,256.8z"/>
	<path d="M703.9,253.2c0-3.8,1.7-5.7,5.3-5.7c3.4,0,5.2,2.3,5.2,5.4h0.1c1-3.8,5.6-5.4,8.9-5.4c8.2,0,13.3,6.1,13.3,15.7
		c0,5.8-3.1,15.5-13,15.5c-3.9,0-6.6-1.8-8.2-4.6h-0.1v9.8c0,4.1-2,5.9-5.7,5.9s-5.7-1.8-5.7-5.9L703.9,253.2L703.9,253.2z
		 M719.7,269.6c4.1,0,5.3-3.4,5.3-6.7c0-3.1-1.1-6.8-5.1-6.8c-3.4,0-4.8,2.8-4.8,7.1C715.2,267.3,717.1,269.6,719.7,269.6z"/>
	<path d="M742.1,242.1c0-4,2.4-5.8,5.9-5.8s5.9,1.8,5.9,5.8v31c0,4-2.4,5.8-5.9,5.8s-5.9-1.8-5.9-5.8V242.1z"/>
	<path d="M792.1,269.4c0,2,0.3,3.9,0.3,5.3c0,2.9-2.6,4.2-5.5,4.2c-4.1,0-5.5-2-5.9-4.8c-2.2,3.5-6.4,4.8-10.5,4.8
		c-6.5,0-11.2-2.6-11.2-9.2c0-5,3.5-8.6,15.1-9.4c4.4-0.3,6.2-0.9,6.2-2.9c0-1.9-1.6-2.9-4.8-2.9c-5.1,0-6.3,4.1-10.3,4.1
		c-2.3,0-3.8-1.3-3.8-3.7c0-4.4,6.2-7.2,14.3-7.2c6.2,0,15.8,1.4,15.8,8.8L792.1,269.4L792.1,269.4z M780.6,264.7
		c-1.6,1.7-5.5,1.4-7.6,2.2c-1,0.4-1.6,1.2-1.6,2.4c0,1.7,1.7,2.9,3.6,2.9c3.4,0,5.6-2,5.6-4.3v-3.4l0,0V264.7z"/>
	<path d="M814.5,254.2c1.1-4.9,2.6-6.7,5.7-6.7c2.8,0,5.5,1.6,5.5,5c0,1-0.8,3.7-2.2,7.6l-6.8,20c-2.5,7.5-7.7,9.1-12.6,9.1
		c-4.7,0-7-1.9-7-4.9c0-2.8,1.8-3.7,4.5-3.7c2.4,0,3-0.6,3-1.4c0-0.5-0.2-1.3-0.6-2.2l-6.3-17.9c-1.4-4-1.8-5.8-1.8-6.7
		c0-2.8,2.4-5,5.8-5c2.6,0,4.3,1.3,5,4.4l4.3,16.6h0.1L814.5,254.2z"/>
	<path d="M869.4,272.1L869.4,272.1c-1.3,2.8-4.8,4.1-8.3,4.1c-5.4,0-12.8-3.7-12.8-14.2c0-7.8,4.8-14.4,13-14.4c3.5,0,8,1.6,9,5.4
		h0.1c0-3,1.7-5.4,5.2-5.4c3.6,0,5.3,1.9,5.3,5.7v24.1c0,9.3-6.8,12.7-16.8,12.7c-11.3,0-14.1-4.5-14.1-6.8c0-2.4,1.6-4.4,4.3-4.4
		s4.8,3.7,8.8,3.7c4.8,0,6.3-2.1,6.3-6.4V272.1L869.4,272.1z M865,255.8c-3.6,0-4.9,2.4-4.9,6.3c0,3.9,1.3,6.3,4.9,6.3
		c3.7,0,4.9-2.9,4.9-6.3C869.9,258.7,868.7,255.8,865,255.8z"/>
	<path d="M886.6,253.3c0-4,2.4-5.8,5.3-5.8c2.9,0,5.3,1.6,5.3,6.1v2.2h0.1c2-5.4,4.3-8.3,7.6-8.3c3.6,0,4.8,2.8,4.8,5.4
		c0,2.9-1.2,4.8-3.1,5.3l-3.1,0.8c-3.1,0.8-5,2-5,5.9v8.1c0,4-2.4,5.8-5.9,5.8s-5.9-1.8-5.9-5.8L886.6,253.3L886.6,253.3z"/>
	<path d="M929.2,247.5c9.3,0,16.8,4.9,16.8,15.6c0,10.9-7.3,15.7-16.8,15.7c-9.3,0-16.8-4.9-16.8-15.7
		C912.4,252.4,919.8,247.5,929.2,247.5z M929.2,255.5c-3.1,0-5,2.5-5,8.1c0,5,1.8,7.5,5,7.5c3.1,0,5-2.5,5-7.5
		C934.2,257.9,932.3,255.5,929.2,255.5z"/>
	<path d="M971.5,253.3c0-4,2.4-5.8,5.9-5.8s5.9,1.8,5.9,5.8v19.9c0,3.7-1.7,5.6-5.7,5.6c-3.5,0-4.9-2-5.3-5.6h-0.1
		c-1.9,3.6-5.2,5.6-9.8,5.6c-8.1,0-11.5-5-11.5-11.5v-14c0-4,2.4-5.8,5.9-5.8s5.9,1.8,5.9,5.8v11.3c0,3.3,1.4,5,4.4,5
		s4.4-2.2,4.4-5.8L971.5,253.3L971.5,253.3z"/>
	<path d="M989.1,253.2c0-3.8,1.7-5.7,5.3-5.7c3.4,0,5.2,2.3,5.2,5.4h0.1c1-3.8,5.6-5.4,8.9-5.4c8.2,0,13.3,6.1,13.3,15.7
		c0,5.8-3.1,15.5-13,15.5c-3.9,0-6.6-1.8-8.2-4.6h-0.1v9.8c0,4.1-2,5.9-5.7,5.9s-5.7-1.8-5.7-5.9L989.1,253.2L989.1,253.2z
		 M1004.9,269.6c4.1,0,5.3-3.4,5.3-6.7c0-3.1-1.1-6.8-5.1-6.8c-3.4,0-4.8,2.8-4.8,7.1C1000.3,267.3,1002.2,269.6,1004.9,269.6z"/>
	<path d="M1059.5,267.2l-3.5-0.7c-8.5-1.8-11.1-4.9-11.1-9.3c0-4.6,3.4-9.8,15-9.8c7,0,14.2,1.9,14.2,6.5c0,2-1.6,3.7-3.9,3.7
		c-3.9,0-5.1-3.7-10.7-3.7c-2.1,0-3.4,0.7-3.4,2.1c0,1.1,0.5,1.7,3.7,2.4l5,1.1c6.4,1.4,10.5,4.1,10.5,8.9c0,5.2-3.9,10.4-16.3,10.4
		c-7.6,0-14.3-2.2-14.3-7.2c0-1.9,1.9-3.6,4.2-3.6c3.4,0,4.9,4.4,10.6,4.4c2.5,0,3.8-1.2,3.8-2.3
		C1063.4,269,1062.8,267.9,1059.5,267.2z"/>
	<path d="M1080,253.2c0-3.8,1.7-5.7,5.3-5.7c3.4,0,5.2,2.3,5.2,5.4h0.1c1-3.8,5.6-5.4,8.9-5.4c8.2,0,13.3,6.1,13.3,15.7
		c0,5.8-3.1,15.5-13,15.5c-3.9,0-6.6-1.8-8.2-4.6h-0.1v9.8c0,4.1-2,5.9-5.7,5.9s-5.7-1.8-5.7-5.9v-30.7H1080z M1095.8,269.6
		c4.1,0,5.3-3.4,5.3-6.7c0-3.1-1.1-6.8-5.1-6.8c-3.4,0-4.8,2.8-4.8,7.1C1091.2,267.3,1093.1,269.6,1095.8,269.6z"/>
	<path d="M1134.1,247.5c9.3,0,16.8,4.9,16.8,15.6c0,10.9-7.3,15.7-16.8,15.7c-9.4,0-16.8-4.9-16.8-15.7
		C1117.4,252.4,1124.7,247.5,1134.1,247.5z M1134.1,255.5c-3.1,0-5,2.5-5,8.1c0,5,1.8,7.5,5,7.5s5-2.5,5-7.5
		C1139,257.9,1137.2,255.5,1134.1,255.5z"/>
	<path d="M1156,253.3c0-4,2.4-5.8,5.3-5.8s5.3,1.6,5.3,6.1v2.2h0.1c2-5.4,4.3-8.3,7.6-8.3c3.6,0,4.8,2.8,4.8,5.4
		c0,2.9-1.2,4.8-3.1,5.3l-3.1,0.8c-3.1,0.8-5,2-5,5.9v8.1c0,4-2.4,5.8-5.9,5.8s-5.9-1.8-5.9-5.8L1156,253.3L1156,253.3z"/>
	<path d="M1186.4,244.5c0-4.1,2-5.9,5.7-5.9s5.7,1.8,5.7,5.9v3.8h3.5c2.3,0,3.7,1.1,3.7,3.5c0,2.3-1.3,3.5-3.7,3.5h-3.5v13v0.8
		c0,0.9,0.6,1.3,1.3,1.3c4.5,0,5.8,1.3,5.8,4.1c0,2.4-1.5,4.5-8.2,4.5c-6.6,0-10.3-3.4-10.3-10v-13.7h-2.1c-2.3,0-3.7-1.1-3.7-3.5
		c0-2.3,1.3-3.5,3.7-3.5h2.1V244.5z"/>
	<path d="M1221.1,267.2l-3.5-0.7c-8.5-1.8-11.1-4.9-11.1-9.3c0-4.6,3.4-9.8,15-9.8c7,0,14.2,1.9,14.2,6.5c0,2-1.6,3.7-3.9,3.7
		c-3.9,0-5.1-3.7-10.7-3.7c-2.1,0-3.4,0.7-3.4,2.1c0,1.1,0.5,1.7,3.7,2.4l5,1.1c6.4,1.4,10.5,4.1,10.5,8.9c0,5.2-3.9,10.4-16.3,10.4
		c-7.6,0-14.3-2.2-14.3-7.2c0-1.9,1.9-3.6,4.2-3.6c3.4,0,4.9,4.4,10.6,4.4c2.5,0,3.8-1.2,3.8-2.3
		C1225,269,1224.4,267.9,1221.1,267.2z"/>
	<path d="M1276.8,247.5c9.3,0,16.8,4.9,16.8,15.6c0,10.9-7.3,15.7-16.8,15.7c-9.4,0-16.8-4.9-16.8-15.7
		C1260,252.4,1267.4,247.5,1276.8,247.5z M1276.8,255.5c-3.1,0-5,2.5-5,8.1c0,5,1.8,7.5,5,7.5s5-2.5,5-7.5
		C1281.7,257.9,1279.9,255.5,1276.8,255.5z"/>
	<path d="M1319.1,261.8c0-3.3-1.4-5-4.4-5s-4.4,2.2-4.4,5.8v10.5c0,4-2.4,5.8-5.9,5.8s-5.9-1.8-5.9-5.8v-19.9c0-3.7,1.7-5.6,5.7-5.6
		c3.5,0,4.9,2,5.3,5.6h0.1c1.9-3.6,5.2-5.6,9.8-5.6c8.1,0,11.5,5,11.5,11.5v14c0,4-2.4,5.8-5.9,5.8s-5.9-1.8-5.9-5.8L1319.1,261.8
		L1319.1,261.8z"/>
	<path d="M1371.8,247.5c8.2,0,13.6,4,13.6,8c0,2.6-1.9,4.4-4.3,4.4c-3,0-4.4-4.2-8.5-4.2c-4.8,0-5.9,4-5.9,7.2
		c0,3.9,1.2,7.7,5.4,7.7c4,0,5.7-4.2,8.9-4.2c2.8,0,4.4,2.2,4.4,4.4c0,2.4-3.4,8-13.7,8c-9.3,0-16.8-4.9-16.8-15.7
		C1355.1,252.4,1362.5,247.5,1371.8,247.5z"/>
	<path d="M1422.8,269.4c0,2,0.3,3.9,0.3,5.3c0,2.9-2.6,4.2-5.5,4.2c-4.1,0-5.6-2-5.9-4.8c-2.2,3.5-6.4,4.8-10.5,4.8
		c-6.5,0-11.2-2.6-11.2-9.2c0-5,3.5-8.6,15.1-9.4c4.4-0.3,6.2-0.9,6.2-2.9c0-1.9-1.6-2.9-4.8-2.9c-5.1,0-6.3,4.1-10.3,4.1
		c-2.3,0-3.8-1.3-3.8-3.7c0-4.4,6.2-7.2,14.3-7.2c6.2,0,15.8,1.4,15.8,8.8v12.9L1422.8,269.4L1422.8,269.4z M1411.3,264.7
		c-1.6,1.7-5.5,1.4-7.6,2.2c-1,0.4-1.6,1.2-1.6,2.4c0,1.7,1.7,2.9,3.6,2.9c3.4,0,5.6-2,5.6-4.3v-3.4l0,0V264.7z"/>
	<path d="M1467.9,261.8c0-3.8-1.2-5-3.9-5c-2,0-4,2-4,5.4v10.9c0,4-2.4,5.8-5.9,5.8s-5.9-1.8-5.9-5.8v-11.3c0-3.8-1.2-5-3.9-5
		c-2,0-4,2-4,5.4v10.9c0,4-2.4,5.8-5.9,5.8s-5.9-1.8-5.9-5.8v-19.9c0-3.7,1.7-5.6,5.7-5.6c3.5,0,4.9,2,5.3,5.6h0.1
		c1.9-3.6,5.2-5.6,9.8-5.6c3.9,0,7.8,1.7,8.8,5.8c2.5-4.2,5.8-5.8,10-5.8c8.1,0,11.4,5,11.4,11.5v14c0,4-2.4,5.8-5.9,5.8
		s-5.9-1.8-5.9-5.8L1467.9,261.8L1467.9,261.8z"/>
	<path d="M1485.7,253.2c0-3.8,1.7-5.7,5.3-5.7c3.4,0,5.2,2.3,5.2,5.4h0.1c1-3.8,5.6-5.4,8.9-5.4c8.2,0,13.3,6.1,13.3,15.7
		c0,5.8-3.1,15.5-13,15.5c-3.9,0-6.6-1.8-8.2-4.6h-0.1v9.8c0,4.1-2,5.9-5.7,5.9s-5.7-1.8-5.7-5.9v-30.7H1485.7z M1501.4,269.6
		c4.1,0,5.3-3.4,5.3-6.7c0-3.1-1.1-6.8-5.1-6.8c-3.4,0-4.8,2.8-4.8,7.1C1497,267.3,1498.9,269.6,1501.4,269.6z"/>
	<path d="M1544.1,253.3c0-4,2.4-5.8,5.9-5.8s5.9,1.8,5.9,5.8v19.9c0,3.7-1.7,5.6-5.7,5.6c-3.5,0-4.9-2-5.3-5.6h-0.1
		c-1.9,3.6-5.2,5.6-9.8,5.6c-8.1,0-11.5-5-11.5-11.5v-14c0-4,2.4-5.8,5.9-5.8s5.9,1.8,5.9,5.8v11.3c0,3.3,1.4,5,4.4,5
		s4.4-2.2,4.4-5.8L1544.1,253.3L1544.1,253.3z"/>
	<path d="M1575.1,267.2l-3.5-0.7c-8.5-1.8-11.1-4.9-11.1-9.3c0-4.6,3.4-9.8,15-9.8c7,0,14.2,1.9,14.2,6.5c0,2-1.6,3.7-3.9,3.7
		c-3.9,0-5.1-3.7-10.7-3.7c-2.1,0-3.4,0.7-3.4,2.1c0,1.1,0.5,1.7,3.7,2.4l5,1.1c6.4,1.4,10.5,4.1,10.5,8.9c0,5.2-3.9,10.4-16.3,10.4
		c-7.6,0-14.3-2.2-14.3-7.2c0-1.9,1.9-3.6,4.2-3.6c3.4,0,4.9,4.4,10.6,4.4c2.5,0,3.8-1.2,3.8-2.3
		C1578.8,269,1578.3,267.9,1575.1,267.2z"/>
</g>
<g>
	<path class="st3" d="M11.7,229.8l91.7-212.9h60.2l1.1,212.9h-50.5l1.7-41.4H76.7l-14.8,41.4L11.7,229.8L11.7,229.8z M125.5,55.5
		h-0.6L90,150.9h28.9L125.5,55.5z"/>
	<path class="st3" d="M275.1,129.9l0.3-2.8c0.3-6,2-12.2,2.3-18.2c-0.9-6.5-3.4-9.9-10.2-9.9c-11.6,0-15.6,9.1-17.6,19.3l-14.2,65.6
		c-2,9.9-0.9,18.4,10.8,18.4c16.7,0,19-25,21.6-36.9h43.7c-2,9.4-7.4,29.2-11.6,37.7C290,223,271,232,251.1,234
		c-4.3,0.3-8.5,0.9-15.3,0.9c-32.4,0-53.1-13.1-45.4-49.4l13.9-64.7c8.5-40.9,32.4-54.5,67.3-54.5c44.6,0.6,58.2,19.9,46.3,63.6
		L275.1,129.9L275.1,129.9z"/>
	<path class="st3" d="M339.3,103.5l6.8-32.6H364l9.6-45.4h45.1l-9.6,45.4h21.6l-6.9,32.6h-21.6l-17.9,83.7c-2,9.1,1.7,11.1,7.7,11.1
		c5.1-0.9,6.8-0.6,11.6-0.6l-6.8,31.8c-9.9,1.4-19.6,2.6-29.5,2.6c-24.4,0-34.9-12.5-29.8-36.6l19.6-92H339.3z"/>
	<path class="st3" d="M420.4,229.8l33.8-158.9h45.1l-33.8,158.9H420.4z M457.6,55.2l7.9-38.3h45.1l-7.9,38.3H457.6z"/>
	<path class="st3" d="M557.2,173.6h0.6l38-102.7h44l-68.7,158.9h-51.6l-0.9-158.9H564L557.2,173.6z"/>
	<path class="st3" d="M679.6,157.7l-6,27.8c-1.7,8.8,0.6,16.2,10.5,16.7c16.5,0.9,17.9-14.2,21.6-27.5h44.8
		c-6.2,40.9-32.4,59.6-71.8,60.2c-32.4,0.3-57.9-13.1-50.2-49.4l13.9-64.7c8.5-40.9,37.2-54.2,72.1-54.5c31.8-0.3,58.5,11.6,51.1,46
		l-9.6,45.4L679.6,157.7L679.6,157.7z M717,127.9l3.4-15.6c1.1-5.7-0.3-16.2-11.9-16.2c-12.8,0-18.2,10.2-20.4,21.3l-2.3,10.5
		C685.8,127.9,717,127.9,717,127.9z"/>
	<path class="st3" d="M764.1,229.8l45.2-212.9h70.4l-0.9,125.7h0.6l53.3-125.7h69.8l-45.1,212.9h-47.7l40.6-166.9h-0.6L879,229.8
		h-37.2l1.1-166.9h-0.4l-31,166.9H764.1z"/>
	<path class="st3" d="M1042.3,157.7l-6,27.8c-1.7,8.8,0.6,16.2,10.5,16.7c16.5,0.9,17.9-14.2,21.6-27.5h44.8
		c-6.2,40.9-32.4,59.6-71.8,60.2c-32.4,0.3-57.9-13.1-50.2-49.4l13.9-64.7c8.5-40.9,37.2-54.2,72.1-54.5c31.8-0.3,58.5,11.6,51.1,46
		l-9.6,45.4L1042.3,157.7L1042.3,157.7z M1079.7,127.9l3.4-15.6c1.1-5.7-0.3-16.2-11.9-16.2c-12.8,0-18.2,10.2-20.4,21.3l-2.3,10.5
		C1048.5,127.9,1079.7,127.9,1079.7,127.9z"/>
	<path class="st3" d="M1184.2,157.7l-6,27.8c-1.7,8.8,0.6,16.2,10.5,16.7c16.5,0.9,17.9-14.2,21.6-27.5h44.8
		c-6.2,40.9-32.4,59.6-71.8,60.2c-32.4,0.3-57.9-13.1-50.2-49.4l13.9-64.7c8.5-40.9,37.2-54.2,72.1-54.5c31.8-0.3,58.5,11.6,51.1,46
		l-9.6,45.4L1184.2,157.7L1184.2,157.7z M1221.7,127.9l3.4-15.6c1.1-5.7-0.3-16.2-11.9-16.2c-12.8,0-18.2,10.2-20.4,21.3l-2.3,10.5
		C1190.5,127.9,1221.7,127.9,1221.7,127.9z"/>
	<path class="st3" d="M1285.2,103.5l6.8-32.6h17.9l9.6-45.4h45.1l-9.6,45.4h21.6l-6.8,32.6h-21.6l-17.9,83.7
		c-2,9.1,1.7,11.1,7.7,11.1c5.1-0.9,6.8-0.6,11.6-0.6l-6.8,31.8c-9.9,1.4-19.6,2.6-29.5,2.6c-24.4,0-34.9-12.5-29.8-36.6l19.6-92
		H1285.2z"/>
	<path class="st3" d="M1406.4,16.9h50l-34.1,160.6c-2.3,10.2-0.9,19,13.3,19c13.1,0,19.3-11.4,21.3-20.4l33.8-159.2h50L1508.1,171
		c-7.7,36-29.8,63.9-80.9,63.9c-42.3,0-62.7-20.2-53.4-63.9L1406.4,16.9z"/>
	<path class="st3" d="M1519.7,229.8l45.1-212.9h64.7c37.7,0,64.7,12.2,55.6,55.1c-4,18.7-14.2,35.5-33.5,44.8l-0.3,0.6
		c19.9,13.1,22.4,24.4,16.7,50.8c-9.1,43.1-37.5,61.6-78,61.6L1519.7,229.8L1519.7,229.8z M1577.9,191.5c25-0.6,35.2,1.1,41.2-27.5
		c5.4-24.7-9.1-24.1-30.1-25L1577.9,191.5z M1597.2,100.7c22.1-1.4,32.1,0,37.5-25.3c4.3-21-10.2-20.2-27.8-20.2L1597.2,100.7z"/>
	<path class="st3" d="M1790.7,91.3l2.8-13.6c4-18.2-0.6-27.5-9.9-27.5c-15.6-0.3-21.3,8.2-24.1,22.1l-22.7,105.3
		c-2.6,11.9,0.9,19,13.9,19c17,0,22.1-17.6,25-30.7l4-19.3h50l-5.4,26.1c-7.9,36.6-34.3,62.2-85.4,62.2c-46,0-58.7-24.4-49.4-67.8
		l18.4-87.4c9.9-46.3,35.8-67.8,81.5-67.8c42.6,0,64.4,18.2,55.1,61.6l-3.7,17.9L1790.7,91.3L1790.7,91.3z"/>
</g>
</svg>
