<?xml version="1.0" encoding="utf-8"?>
<!-- Generator: Adobe Illustrator 26.0.0, SVG Export Plug-In . SVG Version: 6.00 Build 0)  -->
<svg version="1.1" id="Layer_1" xmlns="http://www.w3.org/2000/svg" xmlns:xlink="http://www.w3.org/1999/xlink" x="0px" y="0px"
	 viewBox="0 0 477.8 53.8" style="enable-background:new 0 0 477.8 53.8;" xml:space="preserve">
<style type="text/css">
	.st0{fill:#E9E6FF;}
</style>
<g>
	<path class="st0" d="M33.9,39.4c4.2,0,7.1,2.4,7.1,6.7c0,4.2-2.9,6.7-7.1,6.7H9.4c-6.4,0-9.4-3-9.4-9.9v-34C0,3.4,3.2,0,8.3,0
		c5.1,0,8.3,3.4,8.3,8.9v30.5H33.9z"/>
	<path class="st0" d="M63.1,53.7C51.3,53.7,42,47.6,42,33.9c0-13.6,9.3-19.7,21.1-19.7c16.6,0,21.6,11.4,21.6,17c0,4.5-2.1,6-6.8,6
		h-21C57.3,42,60,45,64.8,45c5.4,0,8.6-4.6,13.1-4.6c2.6,0,4.6,2.5,4.6,4.9C82.5,49.4,77.5,53.7,63.1,53.7z M70.8,29.9
		c0-5.2-3.2-7.1-6.9-7.1c-3.3,0-6.8,1.8-7,7.1H70.8z"/>
	<path class="st0" d="M108.3,14.2c10.4,0,17.2,5,17.2,10.2c0,3.4-2.4,5.5-5.3,5.5c-3.8,0-5.5-5.3-10.7-5.3c-6,0-7.4,5-7.4,9.1
		c0,4.9,1.6,9.7,6.8,9.7c5,0,7.2-5.3,11.3-5.3c3.5,0,5.5,2.9,5.5,5.5c0,3-4.2,10.2-17.4,10.2c-11.8,0-21.1-6.1-21.1-19.8
		S96.5,14.2,108.3,14.2z"/>
	<path class="st0" d="M133.9,10.3c0-5.1,2.6-7.4,7.2-7.4s7.2,2.3,7.2,7.4v4.8h4.3c3,0,4.6,1.4,4.6,4.3s-1.7,4.3-4.6,4.3h-4.3v16.4
		v1.1c0,1.2,0.7,1.7,1.7,1.7c5.6,0,7.3,1.7,7.3,5.2c0,3-1.9,5.6-10.4,5.6c-8.4,0-13-4.2-13-12.6V23.7h-2.7c-3,0-4.6-1.4-4.6-4.3
		s1.7-4.3,4.6-4.3h2.7L133.9,10.3L133.9,10.3z"/>
	<path class="st0" d="M185.1,21.5c0-5,3.1-7.3,7.4-7.3s7.4,2.3,7.4,7.3v25.1c0,4.6-2.2,7.1-7.1,7.1c-4.4,0-6.1-2.5-6.6-7h-0.1
		c-2.4,4.5-6.6,7-12.2,7c-10.3,0-14.5-6.3-14.5-14.5V21.6c0-5,3.1-7.3,7.4-7.3c4.3,0,7.4,2.3,7.4,7.3v14.2c0,4.1,1.8,6.3,5.5,6.3
		s5.5-2.9,5.5-7.3V21.5H185.1z"/>
	<path class="st0" d="M205.6,21.5c0-5,3.1-7.3,6.7-7.3c3.7,0,6.6,2,6.6,7.6v2.9h0.1c2.5-6.8,5.4-10.5,9.6-10.5c4.5,0,6,3.6,6,6.8
		c0,3.7-1.5,6-4,6.6l-4,1c-4,1-6.3,2.5-6.3,7.4v10.3c0,5-3.1,7.3-7.4,7.3s-7.4-2.3-7.4-7.3V21.5H205.6z"/>
	<path class="st0" d="M256.9,53.7c-11.8,0-21.1-6.1-21.1-19.8c0-13.6,9.3-19.7,21.1-19.7c16.6,0,21.6,11.4,21.6,17
		c0,4.5-2.1,6-6.8,6h-21c0.4,4.8,3.1,7.8,7.9,7.8c5.4,0,8.6-4.6,13.1-4.6c2.6,0,4.6,2.5,4.6,4.9C276.3,49.4,271.2,53.7,256.9,53.7z
		 M264.5,29.9c0-5.2-3.2-7.1-6.9-7.1c-3.3,0-6.8,1.8-7,7.1H264.5z"/>
	<path class="st0" d="M319.1,6.9c1.4-5.1,3.5-6.9,8.8-6.9h4.7c5.7,0,8.6,3.7,8.6,9v37.3c0,5-3,7.4-7.4,7.4s-7.4-2.4-7.4-7.4V21.1
		h-0.1l-7.5,28c-0.9,3.5-2.6,4.6-6.6,4.6s-5.6-1.1-6.6-4.6l-7.5-28H298v25.2c0,5-3,7.4-7.4,7.4s-7.4-2.4-7.4-7.4V9c0-5.3,3-9,8.6-9
		h4.7c5.3,0,7.4,1.8,8.8,6.9l6.8,25.7h0.1L319.1,6.9z"/>
	<path class="st0" d="M367.6,14.2c11.8,0,21.1,6.1,21.1,19.7c0,13.7-9.3,19.8-21.1,19.8s-21.1-6.1-21.1-19.8
		C346.5,20.3,355.8,14.2,367.6,14.2z M367.6,24.1c-4,0-6.3,3.2-6.3,10.2c0,6.3,2.3,9.4,6.3,9.4s6.3-3.2,6.3-9.4
		C373.8,27.3,371.5,24.1,367.6,24.1z"/>
	<path class="st0" d="M412.4,14.2c11.8,0,21.1,6.1,21.1,19.7c0,13.7-9.3,19.8-21.1,19.8s-21.1-6.1-21.1-19.8
		C391.3,20.3,400.6,14.2,412.4,14.2z M412.4,24.1c-4,0-6.3,3.2-6.3,10.2c0,6.3,2.3,9.4,6.3,9.4s6.3-3.2,6.3-9.4
		C418.7,27.3,416.4,24.1,412.4,24.1z"/>
	<path class="st0" d="M463.4,7.4c0-5.1,2.6-7.4,7.2-7.4s7.2,2.3,7.2,7.4v39.1c0,4.8-2.2,7.2-6.6,7.2c-4.2,0-6.5-3-6.5-6.8h-0.1
		c-1.2,4.8-7.1,6.8-11.3,6.8c-10.4,0-16.8-7.7-16.8-19.9c0-7.3,4-19.7,16.4-19.7c4.9,0,8.3,2.3,10.4,5.8h0.1L463.4,7.4L463.4,7.4z
		 M457.9,25.8c-5.1,0-6.7,4.2-6.7,8.5c0,4,1.4,8.6,6.4,8.6c4.2,0,6-3.6,6-8.9C463.6,28.7,461.2,25.8,457.9,25.8z"/>
</g>
</svg>
