<svg viewBox="0 0 486.71 208.47" xmlns="http://www.w3.org/2000/svg"><path d="m793.77 267.39a17.41 17.41 0 0 0 -19.5 24.46l-60.35 56.84a18.09 18.09 0 0 0 -2.35-1.11 17.35 17.35 0 0 0 -12.35-.06l-15.71-20.45a17.71 17.71 0 0 0 2.87-6.61 17.43 17.43 0 0 0 -33.38-9.75 17.29 17.29 0 0 0 -.76 10l-41 23.13a17.47 17.47 0 1 0 5.39 8.72l40.65-22.93a17.41 17.41 0 0 0 18.08 3.68l15.71 20.45a17.71 17.71 0 0 0 -2.87 6.61 17.43 17.43 0 1 0 32.71-4.21l60.24-56.73a16.93 16.93 0 0 0 8.85 2.37 17.41 17.41 0 0 0 3.77-34.41zm-195.19 96.61a7.19 7.19 0 1 1 7.29-3.24 7.2 7.2 0 0 1 -7.29 3.24zm69.49-40a7.19 7.19 0 1 1 7.3-3.24 7.2 7.2 0 0 1 -7.3 3.31zm36 46.85a7.19 7.19 0 1 1 7.3-3.23 7.19 7.19 0 0 1 -7.29 3.3zm84.71-79.42a7.19 7.19 0 1 1 7.29-3.24 7.2 7.2 0 0 1 -7.28 3.31z" fill="#c0ceff" transform="translate(-461.9 -266.97)"/><text fill="#3e68ff" font-family="HelveticaNeue-Bold, Helvetica Neue" font-size="72" font-weight="700" transform="translate(0 173.84)">UBCGradeBot</text></svg>